<?xml version="1.0" standalone="no"?>
<!DOCTYPE svg PUBLIC "-//W3C//DTD SVG 20010904//EN"
 "http://www.w3.org/TR/2001/REC-SVG-20010904/DTD/svg10.dtd">
<svg version="1.0" xmlns="http://www.w3.org/2000/svg"
 width="180.000000pt" height="180.000000pt" viewBox="0 0 180.000000 180.000000"
 preserveAspectRatio="xMidYMid meet">

<g transform="translate(0.000000,180.000000) scale(0.100000,-0.100000)"
fill="#000000" stroke="none">
<path d="M0 900 l0 -900 900 0 900 0 0 900 0 900 -900 0 -900 0 0 -900z m1458
113 l-3 -558 -555 0 -555 0 -5 558 -5 557 563 0 562 0 -2 -557z m-1022 -727
l20 -53 -58 1 c-32 0 -58 1 -58 2 0 1 7 21 15 44 30 85 50 86 81 6z m74 8 c0
-32 4 -44 14 -44 8 0 18 -4 21 -10 4 -6 -8 -10 -29 -10 l-36 0 0 53 c0 30 3
57 6 60 14 14 24 -6 24 -49z m104 46 c33 -12 36 -55 6 -65 -11 -3 -20 -15 -20
-26 0 -12 -7 -19 -20 -19 -17 0 -20 7 -20 53 0 70 6 76 54 57z m101 -40 c7 0
15 9 17 20 6 42 23 23 28 -32 5 -51 3 -58 -12 -58 -11 0 -18 8 -18 20 0 11 -7
20 -15 20 -8 0 -15 -9 -15 -20 0 -12 -7 -20 -17 -20 -15 0 -17 8 -14 52 3 57
24 86 29 43 2 -14 9 -25 17 -25z m169 -13 c22 -53 23 -57 5 -57 -10 0 -20 4
-24 10 -4 6 -15 6 -31 0 -50 -19 -55 -14 -32 38 39 90 49 91 82 9z m193 34
c16 -21 16 -64 1 -79 -7 -7 -30 -12 -53 -12 l-40 0 3 48 c2 26 5 52 7 58 5 16
68 4 82 -15z m130 -36 c19 -51 20 -55 4 -55 -10 0 -21 3 -25 7 -11 11 -35 12
-42 2 -3 -5 -14 -9 -25 -9 -18 0 -18 2 -5 23 8 12 17 33 21 47 19 65 42 60 72
-15z m101 42 c2 -10 -1 -17 -7 -17 -6 0 -11 -18 -11 -40 0 -29 -4 -40 -15 -40
-11 0 -15 11 -15 39 0 22 -5 41 -12 43 -7 3 -9 12 -5 21 9 23 61 17 65 -6z
m106 -20 c31 -76 32 -74 -32 -74 l-58 0 20 53 c25 64 49 71 70 21z"/>
<path d="M360 1512 l0 -47 45 3 45 4 0 44 0 44 -45 0 -45 0 0 -48z"/>
<path d="M468 1515 l-3 -45 47 0 48 0 0 45 0 45 -44 0 -44 0 -4 -45z"/>
<path d="M578 1515 l-3 -45 47 0 48 0 0 45 0 45 -44 0 -44 0 -4 -45z"/>
<path d="M688 1515 l-3 -45 47 0 48 0 0 45 0 45 -44 0 -44 0 -4 -45z"/>
<path d="M798 1515 l-3 -45 47 0 48 0 0 45 0 45 -44 0 -44 0 -4 -45z"/>
<path d="M910 1513 c0 -53 -6 -49 78 -44 8 1 12 17 12 46 l0 45 -45 0 -45 0 0
-47z"/>
<path d="M1020 1513 c0 -53 -6 -49 78 -44 8 1 12 17 12 46 l0 45 -45 0 -45 0
0 -47z"/>
<path d="M1120 1515 l0 -45 50 0 50 0 0 45 0 45 -50 0 -50 0 0 -45z"/>
<path d="M1238 1515 l-3 -45 47 0 48 0 0 45 0 45 -44 0 -44 0 -4 -45z"/>
<path d="M1350 1515 l0 -45 45 0 45 0 0 45 0 45 -45 0 -45 0 0 -45z"/>
<path d="M360 1406 c0 -48 9 -55 63 -48 25 4 27 8 27 48 l0 44 -45 0 -45 0 0
-44z"/>
<path d="M469 1443 c-13 -84 -7 -93 54 -93 l37 0 0 50 0 50 -45 0 c-25 0 -46
-3 -46 -7z"/>
<path d="M579 1425 c-1 -14 -1 -32 -1 -40 0 -30 3 -32 47 -33 l45 -2 0 50 0
50 -45 0 c-41 0 -45 -2 -46 -25z"/>
<path d="M687 1437 c-6 -16 -2 -76 6 -83 3 -3 24 5 46 18 32 18 41 29 41 51 0
25 -3 27 -44 27 -27 0 -46 -5 -49 -13z"/>
<path d="M796 1434 c-9 -25 -3 -26 48 -13 53 13 52 29 -4 29 -26 0 -40 -5 -44
-16z"/>
<path d="M913 1444 c2 -3 26 -7 53 -11 54 -6 123 -34 148 -59 9 -8 36 -17 61
-18 l45 -3 0 49 0 48 -49 0 c-49 0 -50 -1 -54 -32 l-4 -33 -1 32 -2 32 -101 0
c-56 0 -99 -2 -96 -5z"/>
<path d="M1238 1438 c-3 -7 -4 -29 -4 -47 1 -34 2 -35 49 -38 l47 -3 0 50 0
50 -44 0 c-26 0 -46 -5 -48 -12z"/>
<path d="M1348 1418 c-6 -60 -1 -68 48 -68 l44 0 0 50 0 50 -44 0 c-42 0 -44
-1 -48 -32z"/>
<path d="M923 1353 c9 -2 23 -2 30 0 6 3 -1 5 -18 5 -16 0 -22 -2 -12 -5z"/>
<path d="M360 1290 l0 -51 43 3 42 3 0 45 0 45 -42 3 -43 3 0 -51z"/>
<path d="M467 1333 c-3 -7 -3 -48 1 -80 1 -8 18 -13 47 -13 l45 0 0 50 0 50
-44 0 c-25 0 -47 -3 -49 -7z"/>
<path d="M578 1300 c-6 -61 5 -70 42 -35 17 16 28 35 26 42 -3 8 1 10 11 6 11
-4 14 -2 11 8 -3 8 -21 15 -45 17 l-41 3 -4 -41z"/>
<path d="M830 1315 c-21 -16 -34 -34 -34 -48 0 -20 5 -22 47 -22 l48 0 -3 44
c-2 25 -8 46 -13 48 -6 2 -26 -8 -45 -22z"/>
<path d="M910 1290 l0 -50 45 0 45 0 0 50 0 50 -45 0 -45 0 0 -50z"/>
<path d="M1018 1300 c-2 -23 -1 -45 2 -49 3 -5 24 -9 48 -9 39 -1 42 1 42 27
0 32 -37 71 -67 71 -17 0 -22 -7 -25 -40z"/>
<path d="M1160 1334 c0 -6 53 -94 56 -94 2 0 4 22 4 50 0 48 0 49 -30 47 -16
-1 -30 -3 -30 -3z"/>
<path d="M1237 1333 c-4 -3 -7 -23 -7 -44 0 -31 4 -37 24 -41 22 -4 26 1 39
38 8 24 12 46 9 49 -8 7 -57 6 -65 -2z"/>
<path d="M1397 1313 c-8 -15 -18 -38 -21 -50 -6 -20 -4 -22 29 -20 l36 2 -3
44 c-4 53 -21 63 -41 24z"/>
<path d="M1120 1272 c0 -5 7 -15 15 -22 8 -7 15 -8 15 -2 0 5 -7 15 -15 22 -8
7 -15 8 -15 2z"/>
<path d="M760 1255 c-10 -12 -10 -15 4 -15 9 0 16 7 16 15 0 8 -2 15 -4 15 -2
0 -9 -7 -16 -15z"/>
<path d="M360 1180 l0 -50 45 0 45 0 0 50 0 50 -45 0 -45 0 0 -50z"/>
<path d="M468 1223 c-2 -5 -4 -26 -4 -48 1 -38 3 -40 34 -43 41 -4 61 18 62
66 0 31 -1 32 -44 32 -25 0 -46 -3 -48 -7z"/>
<path d="M733 1222 c-12 -8 -53 -73 -53 -84 0 -5 23 -8 50 -8 l50 0 0 48 c0
39 -3 48 -18 49 -10 1 -23 -2 -29 -5z"/>
<path d="M798 1223 c-3 -4 -4 -26 -4 -48 l1 -40 48 -3 48 -3 -3 48 -3 48 -42
3 c-22 2 -43 -1 -45 -5z"/>
<path d="M909 1225 c0 -3 -1 -18 -1 -35 0 -61 0 -60 47 -60 l45 0 0 50 0 50
-45 0 c-25 0 -45 -2 -46 -5z"/>
<path d="M1020 1179 l0 -49 45 0 45 0 0 49 0 49 -45 0 -45 0 0 -49z"/>
<path d="M1126 1222 c-3 -5 -4 -27 -3 -50 1 -40 2 -42 34 -42 38 0 41 12 19
65 -14 33 -38 46 -50 27z"/>
<path d="M1230 1220 c-8 -5 -10 -10 -5 -10 6 0 10 -16 9 -35 -3 -49 13 -53 25
-8 18 63 10 78 -29 53z"/>
<path d="M1350 1204 c-6 -14 -7 -36 -4 -50 5 -21 12 -24 50 -24 l44 0 0 50 0
50 -40 0 c-34 0 -42 -4 -50 -26z"/>
<path d="M1320 1139 c0 -5 5 -7 10 -4 6 3 10 8 10 11 0 2 -4 4 -10 4 -5 0 -10
-5 -10 -11z"/>
<path d="M360 1075 l0 -45 45 0 45 0 0 45 0 45 -45 0 -45 0 0 -45z"/>
<path d="M464 1075 c0 -34 4 -45 15 -45 10 0 23 18 32 45 l17 45 -33 0 c-31 0
-32 -1 -31 -45z"/>
<path d="M682 1075 l-3 -45 51 0 50 0 0 45 0 45 -47 0 -48 0 -3 -45z"/>
<path d="M790 1075 l0 -45 50 0 50 0 0 45 0 45 -50 0 -50 0 0 -45z"/>
<path d="M909 1118 c0 -2 -1 -22 -3 -45 l-2 -43 48 0 48 0 0 45 0 45 -45 0
c-25 0 -45 -1 -46 -2z"/>
<path d="M1019 1093 c0 -16 -2 -36 -4 -45 -3 -15 4 -18 46 -18 l49 0 0 45 0
45 -45 0 c-42 0 -45 -2 -46 -27z"/>
<path d="M1120 1075 l0 -45 45 0 c40 0 45 2 45 23 0 54 -10 67 -51 67 l-39 0
0 -45z"/>
<path d="M1297 1079 c-20 -46 -20 -46 8 -51 17 -3 20 3 23 45 4 58 -8 60 -31
6z"/>
<path d="M1349 1105 c-7 -77 -8 -75 44 -75 l47 0 0 45 0 45 -45 0 c-33 0 -45
-4 -46 -15z"/>
<path d="M656 1072 c-4 -18 -5 -36 -2 -39 11 -12 17 5 14 39 l-3 33 -9 -33z"/>
<path d="M360 965 c0 -33 4 -45 15 -46 72 -5 70 -6 73 44 l3 47 -45 0 -46 0 0
-45z"/>
<path d="M467 1003 c-11 -10 -8 -83 3 -83 6 0 10 6 10 14 0 7 3 28 6 45 6 29
-3 40 -19 24z"/>
<path d="M640 965 c0 -33 4 -45 15 -45 11 0 15 12 15 45 0 33 -4 45 -15 45
-11 0 -15 -12 -15 -45z"/>
<path d="M690 962 l0 -49 38 3 c20 1 40 3 45 3 4 1 7 21 7 46 l0 45 -45 0 -45
0 0 -48z"/>
<path d="M799 959 l3 -50 42 3 41 3 3 48 3 47 -48 0 -48 0 4 -51z"/>
<path d="M912 963 l3 -48 40 1 40 1 3 46 3 47 -46 0 -46 0 3 -47z"/>
<path d="M1020 962 l0 -47 45 0 45 0 0 48 0 47 -45 0 -45 0 0 -48z"/>
<path d="M1122 963 c3 -45 4 -47 36 -48 36 -2 37 0 47 58 l6 37 -46 0 -46 0 3
-47z"/>
<path d="M1274 996 c-10 -26 11 -81 32 -81 16 0 20 8 22 48 3 45 2 47 -23 47
-14 0 -28 -6 -31 -14z"/>
<path d="M1350 959 c0 -43 3 -50 16 -45 9 3 29 6 45 6 28 0 29 2 29 45 l0 45
-45 0 -45 0 0 -51z"/>
<path d="M360 851 l0 -51 46 0 45 0 -3 48 -3 47 -42 3 -43 3 0 -50z"/>
<path d="M643 859 c9 -66 27 -73 27 -11 0 41 -3 52 -16 52 -14 0 -16 -8 -11
-41z"/>
<path d="M687 893 c-2 -5 -4 -26 -3 -48 l1 -40 45 0 45 0 3 39 c2 24 -2 42
-10 47 -16 11 -75 12 -81 2z"/>
<path d="M798 893 c-2 -4 -4 -26 -3 -48 l0 -40 48 -3 48 -3 -3 48 -3 48 -42 3
c-22 2 -43 -1 -45 -5z"/>
<path d="M915 894 c-5 -2 -10 -23 -9 -46 l1 -43 47 -3 46 -3 0 50 0 51 -37 -1
c-21 0 -42 -2 -48 -5z"/>
<path d="M1020 850 l0 -50 45 0 45 0 0 50 0 50 -45 0 -45 0 0 -50z"/>
<path d="M1122 855 c-1 -27 3 -43 8 -40 6 3 10 0 11 -7 1 -15 38 61 39 80 0 7
-12 12 -29 12 -27 0 -29 -2 -29 -45z"/>
<path d="M1294 885 c2 -7 8 -30 12 -49 9 -50 24 -45 24 8 0 36 -4 45 -21 49
-15 4 -19 2 -15 -8z"/>
<path d="M1350 850 l0 -50 45 0 45 0 0 50 0 50 -45 0 -45 0 0 -50z"/>
<path d="M465 850 c1 -21 4 -42 8 -46 4 -4 7 14 7 39 0 26 -3 47 -7 47 -5 0
-8 -18 -8 -40z"/>
<path d="M1210 871 c-26 -50 -29 -67 -9 -68 16 -2 19 6 21 40 1 41 1 41 5 7 3
-19 9 -39 15 -45 7 -7 9 0 4 24 -3 18 -6 40 -6 47 0 20 -18 17 -30 -5z"/>
<path d="M360 740 l0 -50 45 0 45 0 0 50 0 50 -45 0 -45 0 0 -50z"/>
<path d="M468 784 c-3 -5 -4 -27 -4 -49 1 -28 5 -40 16 -40 11 0 14 9 12 35
-4 39 -17 67 -24 54z"/>
<path d="M686 775 c-13 -35 25 -85 66 -85 27 0 28 2 28 50 l0 50 -44 0 c-30 0
-46 -5 -50 -15z"/>
<path d="M797 783 c-2 -5 -3 -26 -3 -48 l1 -40 48 -3 47 -3 0 50 0 51 -44 0
c-25 0 -47 -3 -49 -7z"/>
<path d="M910 740 l0 -50 45 0 45 0 0 50 0 50 -45 0 -45 0 0 -50z"/>
<path d="M1019 770 c-5 -70 -1 -80 27 -80 20 0 25 4 20 16 -3 9 -2 12 5 9 14
-9 38 24 39 53 0 20 -5 22 -45 22 -38 0 -45 -3 -46 -20z"/>
<path d="M1147 739 l-27 -49 50 0 50 0 0 48 c0 42 -2 47 -23 48 -17 1 -29 -10
-50 -47z"/>
<path d="M1239 780 c-10 -27 -4 -83 9 -87 13 -5 14 21 3 72 -4 20 -8 25 -12
15z"/>
<path d="M1322 765 c0 -16 2 -22 5 -12 2 9 2 23 0 30 -3 6 -5 -1 -5 -18z"/>
<path d="M1348 748 c-3 -24 -3 -46 -1 -50 2 -5 24 -8 49 -8 l44 0 0 50 0 50
-44 0 -44 0 -4 -42z"/>
<path d="M360 633 l0 -48 43 0 42 0 3 48 3 47 -45 0 -46 0 0 -47z"/>
<path d="M468 635 c-2 -31 1 -46 10 -50 19 -7 82 -6 82 1 0 4 -12 26 -27 50
-37 59 -60 58 -65 -1z"/>
<path d="M735 670 c3 -5 15 -15 26 -20 16 -9 19 -7 19 10 0 15 -7 20 -26 20
-14 0 -22 -4 -19 -10z"/>
<path d="M796 672 c-3 -5 -3 -18 0 -29 6 -21 30 -33 72 -33 19 0 22 5 22 35 0
35 0 35 -44 35 -25 0 -47 -4 -50 -8z"/>
<path d="M909 668 c0 -7 -2 -23 -3 -35 -3 -27 1 -28 54 -7 27 11 40 22 40 35
0 16 -8 19 -45 19 -29 0 -45 -4 -46 -12z"/>
<path d="M1020 669 c0 -5 5 -7 10 -4 6 3 10 8 10 11 0 2 -4 4 -10 4 -5 0 -10
-5 -10 -11z"/>
<path d="M1063 634 c-24 -24 -43 -45 -43 -47 0 -2 20 -3 45 -3 l45 1 0 48 c0
26 -1 46 -2 45 -2 0 -22 -20 -45 -44z"/>
<path d="M1120 635 c0 -25 3 -46 8 -46 4 -1 26 -3 50 -4 l42 -3 0 49 0 49 -50
0 -50 0 0 -45z"/>
<path d="M1230 636 c0 -29 5 -46 15 -49 20 -8 24 3 18 51 -8 59 -33 57 -33 -2z"/>
<path d="M1354 638 c9 -54 9 -55 50 -50 35 4 36 5 36 48 l0 44 -46 0 -47 0 7
-42z"/>
<path d="M360 525 c0 -25 3 -45 8 -46 4 0 16 -2 27 -4 42 -9 55 4 55 51 l0 44
-45 0 -45 0 0 -45z"/>
<path d="M467 563 c-10 -20 -6 -77 5 -85 7 -4 30 -8 51 -8 l37 0 0 50 0 50
-44 0 c-25 0 -47 -3 -49 -7z"/>
<path d="M578 565 c-6 -6 0 -77 7 -83 2 -2 21 -5 42 -6 31 -1 39 3 41 20 2 13
-5 24 -20 32 -13 6 -32 19 -44 27 -11 8 -23 13 -26 10z"/>
<path d="M948 546 c-28 -16 -38 -28 -38 -47 0 -23 3 -25 43 -23 l42 2 3 46 c2
25 -1 46 -5 45 -4 -1 -25 -11 -45 -23z"/>
<path d="M1020 521 l0 -48 43 1 42 2 3 47 3 47 -45 0 -46 0 0 -49z"/>
<path d="M1127 563 c-4 -3 -7 -23 -7 -44 0 -40 16 -50 70 -45 22 2 25 8 28 49
l3 47 -44 0 c-24 0 -47 -3 -50 -7z"/>
<path d="M1236 553 c-2 -10 -4 -31 -3 -48 2 -28 4 -30 47 -30 45 0 45 0 48 36
3 33 0 38 -29 48 -44 15 -57 14 -63 -6z"/>
<path d="M1370 549 c0 -11 -5 -16 -13 -13 -10 3 -12 -5 -9 -31 4 -34 5 -35 49
-35 l44 0 -3 47 c-3 46 -4 48 -35 49 -26 1 -33 -3 -33 -17z"/>
<path d="M686 493 c4 -14 16 -18 50 -19 51 -1 59 11 12 21 -18 4 -41 9 -50 11
-12 4 -15 0 -12 -13z"/>
<path d="M835 503 c-16 -3 -34 -8 -38 -12 -10 -10 70 -24 84 -16 13 9 11 35
-3 34 -7 -1 -26 -4 -43 -6z"/>
<path d="M1020 280 c0 -32 11 -38 29 -16 14 16 4 46 -15 46 -9 0 -14 -11 -14
-30z"/>
</g>
</svg>
